<svg width="35" height="35" viewBox="0 0 35 35" fill="none" xmlns="http://www.w3.org/2000/svg">
<path d="M15.0208 30.625H7.29167C6.51812 30.625 5.77625 30.3177 5.22928 29.7707C4.68229 29.2237 4.375 28.4818 4.375 27.7083V7.29167C4.375 6.51812 4.68229 5.77625 5.22928 5.22928C5.77625 4.68229 6.51812 4.375 7.29167 4.375H27.7083C28.4818 4.375 29.2237 4.68229 29.7707 5.22928C30.3177 5.77625 30.625 6.51812 30.625 7.29167V21.875L26.1042 17.3542C25.5554 16.8163 24.8165 16.5168 24.0481 16.5206C23.2797 16.5244 22.5438 16.8314 22.0004 17.3746L8.75 30.625" stroke="black" stroke-width="2" stroke-linecap="round" stroke-linejoin="round"/>
<path d="M20.4166 28.4375L24.7916 24.0625L29.1666 28.4375" stroke="black" stroke-width="2" stroke-linecap="round" stroke-linejoin="round"/>
<path d="M24.7916 32.0833V24.0625" stroke="black" stroke-width="2" stroke-linecap="round" stroke-linejoin="round"/>
<path d="M13.125 16.0417C14.7359 16.0417 16.0417 14.7359 16.0417 13.125C16.0417 11.5142 14.7359 10.2083 13.125 10.2083C11.5142 10.2083 10.2084 11.5142 10.2084 13.125C10.2084 14.7359 11.5142 16.0417 13.125 16.0417Z" stroke="black" stroke-width="2" stroke-linecap="round" stroke-linejoin="round"/>
</svg>
